<mxfile host="app.diagrams.net" modified="2021-03-09T05:24:55.430Z" agent="5.0 (Windows NT 10.0; Win64; x64) AppleWebKit/537.36 (KHTML, like Gecko) Chrome/89.0.4389.72 Safari/537.36 Edg/89.0.774.45" etag="HoI6yVtzdgohVZd_athw" version="14.4.4" type="github">
  <diagram id="pchS6Hf_Uqh4I5BB2NQV" name="Page-1">
    <mxGraphModel dx="820" dy="1619" grid="1" gridSize="10" guides="1" tooltips="1" connect="1" arrows="1" fold="1" page="1" pageScale="1" pageWidth="827" pageHeight="1169" math="0" shadow="0">
      <root>
        <mxCell id="0" />
        <mxCell id="1" parent="0" />
        <mxCell id="5fxtnOiOH_zPr_XEe2Hh-4" value="" style="rounded=0;whiteSpace=wrap;html=1;" vertex="1" parent="1">
          <mxGeometry x="269" y="20" width="301" height="470" as="geometry" />
        </mxCell>
        <mxCell id="5fxtnOiOH_zPr_XEe2Hh-14" value="" style="rounded=0;whiteSpace=wrap;html=1;" vertex="1" parent="1">
          <mxGeometry x="270" y="20" width="300" height="50" as="geometry" />
        </mxCell>
        <mxCell id="5fxtnOiOH_zPr_XEe2Hh-16" value="" style="rounded=0;whiteSpace=wrap;html=1;" vertex="1" parent="1">
          <mxGeometry x="270" y="20" width="150" height="50" as="geometry" />
        </mxCell>
        <mxCell id="5fxtnOiOH_zPr_XEe2Hh-17" value="Kumito" style="rounded=0;whiteSpace=wrap;html=1;" vertex="1" parent="1">
          <mxGeometry x="420" y="20" width="150" height="50" as="geometry" />
        </mxCell>
        <mxCell id="5fxtnOiOH_zPr_XEe2Hh-18" value="Kata" style="text;html=1;strokeColor=none;fillColor=none;align=center;verticalAlign=middle;whiteSpace=wrap;rounded=0;" vertex="1" parent="1">
          <mxGeometry x="320" y="35" width="40" height="20" as="geometry" />
        </mxCell>
        <mxCell id="5fxtnOiOH_zPr_XEe2Hh-19" value="Name 1" style="rounded=0;whiteSpace=wrap;html=1;" vertex="1" parent="1">
          <mxGeometry x="270" y="70" width="301" height="60" as="geometry" />
        </mxCell>
        <mxCell id="5fxtnOiOH_zPr_XEe2Hh-20" value="Name 1" style="rounded=0;whiteSpace=wrap;html=1;" vertex="1" parent="1">
          <mxGeometry x="270" y="130" width="301" height="60" as="geometry" />
        </mxCell>
        <mxCell id="5fxtnOiOH_zPr_XEe2Hh-21" value="Name 1" style="rounded=0;whiteSpace=wrap;html=1;" vertex="1" parent="1">
          <mxGeometry x="270" y="190" width="301" height="60" as="geometry" />
        </mxCell>
        <mxCell id="5fxtnOiOH_zPr_XEe2Hh-22" value="" style="rounded=0;whiteSpace=wrap;html=1;" vertex="1" parent="1">
          <mxGeometry x="650" y="20" width="250" height="470" as="geometry" />
        </mxCell>
        <mxCell id="5fxtnOiOH_zPr_XEe2Hh-23" value="" style="ellipse;whiteSpace=wrap;html=1;" vertex="1" parent="1">
          <mxGeometry x="707" y="35" width="120" height="120" as="geometry" />
        </mxCell>
        <mxCell id="5fxtnOiOH_zPr_XEe2Hh-24" value="Name" style="text;html=1;strokeColor=none;fillColor=none;align=center;verticalAlign=middle;whiteSpace=wrap;rounded=0;" vertex="1" parent="1">
          <mxGeometry x="720" y="170" width="80" height="20" as="geometry" />
        </mxCell>
        <mxCell id="5fxtnOiOH_zPr_XEe2Hh-25" value="" style="ellipse;whiteSpace=wrap;html=1;aspect=fixed;" vertex="1" parent="1">
          <mxGeometry x="530" y="440" width="30" height="30" as="geometry" />
        </mxCell>
        <mxCell id="5fxtnOiOH_zPr_XEe2Hh-26" value="Address" style="text;html=1;strokeColor=none;fillColor=none;align=center;verticalAlign=middle;whiteSpace=wrap;rounded=0;" vertex="1" parent="1">
          <mxGeometry x="747" y="210" width="40" height="20" as="geometry" />
        </mxCell>
        <mxCell id="5fxtnOiOH_zPr_XEe2Hh-27" value="Mobile" style="text;html=1;strokeColor=none;fillColor=none;align=center;verticalAlign=middle;whiteSpace=wrap;rounded=0;" vertex="1" parent="1">
          <mxGeometry x="747" y="250" width="40" height="20" as="geometry" />
        </mxCell>
        <mxCell id="5fxtnOiOH_zPr_XEe2Hh-28" value="Vs" style="rounded=0;whiteSpace=wrap;html=1;" vertex="1" parent="1">
          <mxGeometry x="1030" y="-100" width="250" height="480" as="geometry" />
        </mxCell>
        <mxCell id="5fxtnOiOH_zPr_XEe2Hh-29" value="p1" style="rounded=0;whiteSpace=wrap;html=1;" vertex="1" parent="1">
          <mxGeometry x="1040" y="40" width="120" height="60" as="geometry" />
        </mxCell>
        <mxCell id="5fxtnOiOH_zPr_XEe2Hh-30" value="p2" style="rounded=0;whiteSpace=wrap;html=1;" vertex="1" parent="1">
          <mxGeometry x="1150" y="180" width="120" height="60" as="geometry" />
        </mxCell>
        <mxCell id="5fxtnOiOH_zPr_XEe2Hh-31" value="{&lt;br&gt;Section:- &quot;&quot;,&lt;br&gt;Name:&quot;&quot;,&lt;br&gt;Address:&quot;&quot;,&lt;br&gt;&lt;br&gt;}" style="text;html=1;strokeColor=none;fillColor=none;align=center;verticalAlign=middle;whiteSpace=wrap;rounded=0;" vertex="1" parent="1">
          <mxGeometry x="1380" y="-95" width="150" height="330" as="geometry" />
        </mxCell>
      </root>
    </mxGraphModel>
  </diagram>
</mxfile>
